<svg xmlns="http://www.w3.org/2000/svg" viewBox="0 0 960 640" role="img" aria-labelledby="title desc"><title id="title">Diagnostic Laboratory</title><desc id="desc">Stylized illustration of the diagnostic laboratory at Mediva Care Hospital.</desc><rect width="960" height="640" fill="#fef3c7"/><circle cx="830" cy="90" r="130" fill="#b45309" opacity=".08"/><circle cx="120" cy="590" r="180" fill="#b45309" opacity=".07"/><rect x="100" y="115" width="760" height="425" rx="28" fill="#fff"/><rect x="150" y="390" width="660" height="110" rx="22" fill="#b45309" opacity=".15"/><g fill="none" stroke="#b45309" stroke-width="14" stroke-linecap="round"><path d="M285 190v150c0 55 90 55 90 0V190"/><path d="M465 180v160c0 55 90 55 90 0V180"/><path d="M640 220v120c0 55 90 55 90 0V220"/></g><g fill="#b45309" opacity=".35"><path d="M300 300h60v45c0 37-60 37-60 0z"/><path d="M480 275h60v70c0 37-60 37-60 0z"/><path d="M655 320h60v30c0 37-60 37-60 0z"/></g></svg>