<svg xmlns="http://www.w3.org/2000/svg" viewBox="0 0 560 640" role="img"><defs><linearGradient id="b" x1="0" y1="0" x2="1" y2="1"><stop stop-color="#dbeafe"/><stop offset="1" stop-color="#ffffff"/></linearGradient></defs><rect width="560" height="640" rx="32" fill="url(#b)"/><circle cx="440" cy="112" r="74" fill="#0f4c81" opacity=".12"/><circle cx="100" cy="520" r="102" fill="#0f4c81" opacity=".08"/><g><circle cx="280" cy="205" r="102" fill="#bd7a57"/><path d="M178 202c0-104 190-139 207-13-44-34-119-46-207 13Z" fill="#172033"/><path d="M140 602c-10-194 48-287 140-287s150 93 140 287Z" fill="#eff7ff"/><path d="M214 336l66 82 66-82" fill="#dbeafe"/><path d="M280 420v168" stroke="#0f4c81" stroke-opacity=".25" stroke-width="5"/><path d="M208 352c-7 69 13 130 72 151 60-21 80-82 72-151" fill="none" stroke="#0f4c81" stroke-width="13" stroke-linecap="round"/><circle cx="280" cy="509" r="24" fill="#fff" stroke="#0f4c81" stroke-width="9"/><circle cx="239" cy="205" r="6" fill="#172033"/><circle cx="321" cy="205" r="6" fill="#172033"/><path d="M246 246c22 16 46 16 68 0" fill="none" stroke="#7c422f" stroke-width="6" stroke-linecap="round"/></g></svg>