<svg xmlns="http://www.w3.org/2000/svg" viewBox="0 0 560 640" role="img">
  <defs><linearGradient id="bg" x1="0" y1="0" x2="1" y2="1"><stop stop-color="#ece9ff"/><stop offset="1" stop-color="#ffffff"/></linearGradient></defs>
  <rect width="560" height="640" rx="32" fill="url(#bg)"/>
  <circle cx="445" cy="112" r="78" fill="#6d5ce7" opacity=".10"/>
  <circle cx="92" cy="530" r="108" fill="#6d5ce7" opacity=".08"/>
  <circle cx="280" cy="205" r="101" fill="#a96845"/>
  <path d="M178 208c-4-82 43-124 104-124 73 0 116 54 102 126-21-57-120-79-206-2Z" fill="#1e293b"/>
  <path d="M142 604c-7-191 49-286 138-286s145 95 138 286Z" fill="#f7fbff"/>
  <path d="M210 340l70 82 70-82" fill="#ece9ff"/>
  <path d="M280 424v166" stroke="#6d5ce7" stroke-opacity=".24" stroke-width="5"/>
  <path d="M207 354c-6 68 15 128 73 149 58-21 79-81 73-149" fill="none" stroke="#6d5ce7" stroke-width="13" stroke-linecap="round"/>
  <circle cx="280" cy="509" r="24" fill="#fff" stroke="#6d5ce7" stroke-width="9"/>
  <circle cx="240" cy="207" r="6" fill="#172033"/><circle cx="321" cy="207" r="6" fill="#172033"/>
  <path d="M248 247c20 15 44 15 64 0" fill="none" stroke="#70402f" stroke-width="6" stroke-linecap="round"/>
</svg>