<svg xmlns="http://www.w3.org/2000/svg" viewBox="0 0 620 520" role="img">
  <defs>
    <linearGradient id="panel" x1="0" y1="0" x2="1" y2="1"><stop stop-color="#ffffff" stop-opacity=".24"/><stop offset="1" stop-color="#ffffff" stop-opacity=".06"/></linearGradient>
    <filter id="shadow" x="-20%" y="-20%" width="140%" height="140%"><feDropShadow dx="0" dy="20" stdDeviation="20" flood-color="#020617" flood-opacity=".18"/></filter>
  </defs>
  <circle cx="502" cy="74" r="48" fill="#fff" opacity=".10"/>
  <circle cx="84" cy="430" r="70" fill="#fff" opacity=".08"/>
  <rect x="58" y="56" width="504" height="406" rx="58" fill="url(#panel)" stroke="#fff" stroke-opacity=".22" filter="url(#shadow)"/>
  <rect x="92" y="88" width="436" height="338" rx="42" fill="#0f4c81" opacity=".25"/>
  <path d="M280 330c-76-44-126-88-126-148 0-46 33-78 76-78 27 0 47 12 62 34 15-22 35-34 62-34 43 0 76 32 76 78 0 60-50 104-150 166Z" fill="#fff" opacity=".94"/><path d="M98 260h82l25-54 38 108 33-76 25 42h115" fill="none" stroke="#14b8a6" stroke-width="14" stroke-linecap="round" stroke-linejoin="round"/>
  <circle cx="510" cy="400" r="28" fill="#14b8a6" opacity=".35"/>
</svg>