<svg xmlns="http://www.w3.org/2000/svg" viewBox="0 0 620 520" role="img">
  <defs>
    <linearGradient id="panel" x1="0" y1="0" x2="1" y2="1"><stop stop-color="#ffffff" stop-opacity=".24"/><stop offset="1" stop-color="#ffffff" stop-opacity=".06"/></linearGradient>
    <filter id="shadow" x="-20%" y="-20%" width="140%" height="140%"><feDropShadow dx="0" dy="20" stdDeviation="20" flood-color="#020617" flood-opacity=".18"/></filter>
  </defs>
  <circle cx="502" cy="74" r="48" fill="#fff" opacity=".10"/>
  <circle cx="84" cy="430" r="70" fill="#fff" opacity=".08"/>
  <rect x="58" y="56" width="504" height="406" rx="58" fill="url(#panel)" stroke="#fff" stroke-opacity=".22" filter="url(#shadow)"/>
  <rect x="92" y="88" width="436" height="338" rx="42" fill="#115e59" opacity=".25"/>
  <path d="M190 112c42-22 65 7 90 7s48-29 90-7c54 28 45 97 20 148-19 39-20 133-59 133-29 0-21-93-51-93s-22 93-51 93c-39 0-40-94-59-133-25-51-34-120 20-148Z" fill="#fff" opacity=".95"/><path d="M244 185c23-16 49-16 72 0M230 236c33 24 67 24 100 0" fill="none" stroke="#14b8a6" stroke-width="11" stroke-linecap="round"/><circle cx="430" cy="130" r="34" fill="#fff" opacity=".28"/><path d="M430 112v36M412 130h36" stroke="#fff" stroke-width="9" stroke-linecap="round"/>
  <circle cx="510" cy="400" r="28" fill="#5eead4" opacity=".35"/>
</svg>