<svg xmlns="http://www.w3.org/2000/svg" viewBox="0 0 620 520" role="img">
  <defs>
    <linearGradient id="panel" x1="0" y1="0" x2="1" y2="1"><stop stop-color="#ffffff" stop-opacity=".24"/><stop offset="1" stop-color="#ffffff" stop-opacity=".06"/></linearGradient>
    <filter id="shadow" x="-20%" y="-20%" width="140%" height="140%"><feDropShadow dx="0" dy="20" stdDeviation="20" flood-color="#020617" flood-opacity=".18"/></filter>
  </defs>
  <circle cx="502" cy="74" r="48" fill="#fff" opacity=".10"/>
  <circle cx="84" cy="430" r="70" fill="#fff" opacity=".08"/>
  <rect x="58" y="56" width="504" height="406" rx="58" fill="url(#panel)" stroke="#fff" stroke-opacity=".22" filter="url(#shadow)"/>
  <rect x="92" y="88" width="436" height="338" rx="42" fill="#4338a8" opacity=".25"/>
  <path d="M220 112c-48 0-82 35-82 78 0 18 6 34 17 47-19 14-31 36-31 61 0 43 34 77 78 77 13 0 26-3 37-9 13 18 34 29 59 29 25 0 47-12 60-31 10 5 22 8 34 8 42 0 76-34 76-76 0-26-13-49-33-63 9-13 15-29 15-47 0-42-34-76-76-76-20 0-39 8-52 21-13-12-31-19-51-19-21 0-39 8-52 21-14-13-31-21-49-21Z" fill="#fff" opacity=".94"/><path d="M280 130v246M215 154c18 18 23 38 17 60M346 153c-20 17-26 39-19 61M190 255c27-12 48-8 64 12M372 254c-27-11-48-7-65 13M205 331c20-9 38-5 52 10M354 332c-20-9-38-5-52 10" fill="none" stroke="#8b7cf6" stroke-width="11" stroke-linecap="round"/>
  <circle cx="510" cy="400" r="28" fill="#a99cff" opacity=".35"/>
</svg>