<svg xmlns="http://www.w3.org/2000/svg" viewBox="0 0 620 520" role="img">
  <defs>
    <linearGradient id="panel" x1="0" y1="0" x2="1" y2="1"><stop stop-color="#ffffff" stop-opacity=".24"/><stop offset="1" stop-color="#ffffff" stop-opacity=".06"/></linearGradient>
    <filter id="shadow" x="-20%" y="-20%" width="140%" height="140%"><feDropShadow dx="0" dy="20" stdDeviation="20" flood-color="#020617" flood-opacity=".18"/></filter>
  </defs>
  <circle cx="502" cy="74" r="48" fill="#fff" opacity=".10"/>
  <circle cx="84" cy="430" r="70" fill="#fff" opacity=".08"/>
  <rect x="58" y="56" width="504" height="406" rx="58" fill="url(#panel)" stroke="#fff" stroke-opacity=".22" filter="url(#shadow)"/>
  <rect x="92" y="88" width="436" height="338" rx="42" fill="#134e4a" opacity=".25"/>
  <g transform="rotate(-28 280 250)"><circle cx="200" cy="170" r="48" fill="#fff" opacity=".94"/><circle cx="360" cy="330" r="48" fill="#fff" opacity=".94"/><rect x="195" y="178" width="170" height="145" rx="60" fill="#fff" opacity=".94"/><circle cx="160" cy="140" r="27" fill="#fff" opacity=".94"/><circle cx="230" cy="130" r="27" fill="#fff" opacity=".94"/><circle cx="330" cy="370" r="27" fill="#fff" opacity=".94"/><circle cx="400" cy="350" r="27" fill="#fff" opacity=".94"/></g><path d="M104 395c54-47 105-68 154-61 55 8 88 43 154 15" fill="none" stroke="#5eead4" stroke-width="13" stroke-linecap="round"/>
  <circle cx="510" cy="400" r="28" fill="#5eead4" opacity=".35"/>
</svg>