<svg xmlns="http://www.w3.org/2000/svg" viewBox="0 0 620 520" role="img">
  <defs>
    <linearGradient id="panel" x1="0" y1="0" x2="1" y2="1"><stop stop-color="#ffffff" stop-opacity=".24"/><stop offset="1" stop-color="#ffffff" stop-opacity=".06"/></linearGradient>
    <filter id="shadow" x="-20%" y="-20%" width="140%" height="140%"><feDropShadow dx="0" dy="20" stdDeviation="20" flood-color="#020617" flood-opacity=".18"/></filter>
  </defs>
  <circle cx="502" cy="74" r="48" fill="#fff" opacity=".10"/>
  <circle cx="84" cy="430" r="70" fill="#fff" opacity=".08"/>
  <rect x="58" y="56" width="504" height="406" rx="58" fill="url(#panel)" stroke="#fff" stroke-opacity=".22" filter="url(#shadow)"/>
  <rect x="92" y="88" width="436" height="338" rx="42" fill="#1e3a8a" opacity=".25"/>
  <circle cx="280" cy="208" r="103" fill="#fff" opacity=".94"/><path d="M199 191c17-65 151-74 166 3-51-28-104-29-166-3Z" fill="#2563eb" opacity=".22"/><circle cx="241" cy="214" r="8" fill="#2563eb"/><circle cx="319" cy="214" r="8" fill="#2563eb"/><path d="M243 258c24 19 50 19 74 0" fill="none" stroke="#14b8a6" stroke-width="9" stroke-linecap="round"/><rect x="122" y="345" width="96" height="96" rx="20" fill="#fff" opacity=".9"/><rect x="232" y="325" width="96" height="116" rx="20" fill="#fff" opacity=".78"/><rect x="342" y="360" width="96" height="81" rx="20" fill="#fff" opacity=".64"/>
  <circle cx="510" cy="400" r="28" fill="#60a5fa" opacity=".35"/>
</svg>