<svg xmlns="http://www.w3.org/2000/svg" viewBox="0 0 900 700" role="img" aria-labelledby="title desc">
<title id="title">Modern Mediva Care Hospital building</title><desc id="desc">A clean, contemporary private hospital with ambulance access and landscaped surroundings.</desc>
<defs><linearGradient id="sky" x1="0" y1="0" x2="0" y2="1"><stop stop-color="#eff7ff"/><stop offset="1" stop-color="#ffffff"/></linearGradient><linearGradient id="glass" x1="0" y1="0" x2="1" y2="1"><stop stop-color="#b9ddff"/><stop offset="1" stop-color="#60a5fa"/></linearGradient><filter id="s" x="-20%" y="-20%" width="140%" height="140%"><feDropShadow dy="18" stdDeviation="18" flood-color="#0f172a" flood-opacity=".12"/></filter></defs>
<rect width="900" height="700" rx="40" fill="url(#sky)"/>
<circle cx="745" cy="118" r="62" fill="#fef3c7"/>
<path d="M0 590c160-68 300-42 470-4 156 34 296 28 430-18v132H0Z" fill="#ccfbf1"/>
<g filter="url(#s)"><rect x="130" y="178" width="638" height="382" rx="20" fill="#fff"/><rect x="204" y="112" width="486" height="448" rx="18" fill="#f8fafc"/></g>
<rect x="228" y="142" width="438" height="72" rx="16" fill="#0f4c81"/>
<path d="M268 178h28M282 164v28" stroke="#fff" stroke-width="10" stroke-linecap="round"/>
<text x="321" y="186" font-family="Arial, sans-serif" font-size="26" font-weight="700" fill="#fff">MEDIVA CARE HOSPITAL</text>
<g fill="url(#glass)">
<rect x="162" y="240" width="104" height="76" rx="8"/><rect x="162" y="344" width="104" height="76" rx="8"/>
<rect x="634" y="240" width="104" height="76" rx="8"/><rect x="634" y="344" width="104" height="76" rx="8"/>
<rect x="300" y="246" width="104" height="76" rx="8"/><rect x="496" y="246" width="104" height="76" rx="8"/>
<rect x="300" y="350" width="104" height="76" rx="8"/><rect x="496" y="350" width="104" height="76" rx="8"/>
</g>
<rect x="414" y="350" width="72" height="210" rx="8" fill="#0f4c81"/>
<rect x="426" y="366" width="48" height="194" rx="6" fill="#93c5fd"/>
<path d="M450 366v194" stroke="#fff" stroke-opacity=".7" stroke-width="4"/>
<g transform="translate(83 498)"><rect x="0" y="42" width="160" height="70" rx="18" fill="#fff" stroke="#dbeafe" stroke-width="5"/><rect x="28" y="18" width="74" height="52" rx="12" fill="#fff" stroke="#dbeafe" stroke-width="5"/><path d="M58 28v28M44 42h28" stroke="#ef4444" stroke-width="8" stroke-linecap="round"/><circle cx="44" cy="112" r="19" fill="#1e293b"/><circle cx="124" cy="112" r="19" fill="#1e293b"/><path d="M112 64h32" stroke="#14b8a6" stroke-width="7" stroke-linecap="round"/></g>
<g fill="#0f766e"><circle cx="92" cy="532" r="34"/><circle cx="802" cy="540" r="42"/><circle cx="744" cy="560" r="28"/></g>
<g fill="#115e59"><rect x="86" y="532" width="12" height="74" rx="6"/><rect x="796" y="540" width="12" height="78" rx="6"/><rect x="738" y="560" width="12" height="58" rx="6"/></g>
<path d="M72 620h760" stroke="#cbd5e1" stroke-width="18" stroke-linecap="round"/>
</svg>